<svg xmlns="http://www.w3.org/2000/svg" viewBox="0 0 1200 440" width="1200" height="440" role="img" aria-labelledby="t d">
  <title id="t">Force split across push-rod positions</title>
  <desc id="d">Grouped bars for the four push-rod mounting positions at 2000 N pedal force. The push-rod force falls from 6537 N to 4164 N as the mount moves up, while the load-cell force rises from 1018 N to 1400 N; the cell always sees less than the pedal force.</desc>
  <style>
    .bg { fill: #1b1e24; }
    .gridline { stroke: #20232a; stroke-width: 1; }
    .zone { fill: #16181d; stroke: #2f343c; stroke-width: 1.2; }
    .zone-tab { fill: #5b6069; }
    .tab { font: 600 10.5px 'IBM Plex Mono', 'SF Mono', SFMono-Regular, Menlo, Consolas, monospace; letter-spacing: .12em; fill: #1b1e24; }
    .zone-title { font: 500 10.5px 'IBM Plex Mono', 'SF Mono', SFMono-Regular, Menlo, Consolas, monospace; letter-spacing: .14em; text-transform: uppercase; fill: #9aa0a8; }
    .node { fill: #22262d; stroke: #5b6069; stroke-width: 1.3; }
    .node--accent { stroke: #de9552; }
    .kicker { font: 500 10px 'IBM Plex Mono', 'SF Mono', SFMono-Regular, Menlo, Consolas, monospace; letter-spacing: .14em; text-transform: uppercase; fill: #de9552; }
    .name { font: 650 16px 'Archivo', 'Helvetica Neue', Helvetica, Arial, sans-serif; fill: #e8e6e1; }
    .sub { font: 400 11px 'IBM Plex Mono', 'SF Mono', SFMono-Regular, Menlo, Consolas, monospace; letter-spacing: .04em; fill: #9aa0a8; }
    .link { fill: none; stroke: #5b6069; stroke-width: 1.4; }
    .link--tunnel { stroke: #de9552; stroke-dasharray: 7 5; stroke-width: 1.6; }
    .arrow { fill: #5b6069; }
    .arrow--accent { fill: #de9552; }
    .link-label { font: 500 10px 'IBM Plex Mono', 'SF Mono', SFMono-Regular, Menlo, Consolas, monospace; letter-spacing: .1em; text-transform: uppercase; fill: #9aa0a8; paint-order: stroke; stroke: #16181d; stroke-width: 5px; }
    .link-label--accent { fill: #de9552; }
    .note { font: 400 11px 'IBM Plex Mono', 'SF Mono', SFMono-Regular, Menlo, Consolas, monospace; letter-spacing: .04em; fill: #9aa0a8; }

    .link--ctrl { stroke: #de9552; stroke-dasharray: 4 4; stroke-width: 1.4; fill: none; }
    .dot { fill: #5b6069; }
    .board { fill: #22262d; stroke: #5b6069; stroke-width: 1.6; }
    .keepout { fill: url(#hatch); stroke: #2f343c; stroke-width: 1; }
    .hatchline { stroke: #2f343c; stroke-width: 1.2; }
    .region { fill: #2c241d; stroke: #de9552; stroke-width: 1.2; }
    .region--muted { fill: #16181d; stroke: #5b6069; stroke-width: 1; }
    .hole { fill: #1b1e24; stroke: #5b6069; stroke-width: 1.2; }
    .marker { fill: #de9552; }
    .marker-t { font: 600 11px 'IBM Plex Mono', 'SF Mono', SFMono-Regular, Menlo, Consolas, monospace; fill: #1b1e24; }
    .legend-name { font: 600 14px 'Archivo', 'Helvetica Neue', Helvetica, Arial, sans-serif; fill: #e8e6e1; }
    .dim { stroke: #9aa0a8; stroke-width: 1; }
    .legend { font: 500 10px 'IBM Plex Mono', 'SF Mono', SFMono-Regular, Menlo, Consolas, monospace; letter-spacing: .1em; text-transform: uppercase; fill: #9aa0a8; }
    .bar-f { fill: #2f343c; stroke: #5b6069; stroke-width: 1; }
    .bar-r { fill: #de9552; }
    .bar-c { fill: #e8e6e1; }
    .bar-ok { fill: #de9552; }
    .bar-no { fill: #2f343c; stroke: #5b6069; stroke-width: 1; }
    .axis { stroke: #5b6069; stroke-width: 1.2; }
    .gridline2 { stroke: #2f343c; stroke-width: 1; stroke-dasharray: 3 4; }
    .val { font: 500 11px 'IBM Plex Mono', 'SF Mono', SFMono-Regular, Menlo, Consolas, monospace; fill: #e8e6e1; }
    .tick { font: 500 11px 'IBM Plex Mono', 'SF Mono', SFMono-Regular, Menlo, Consolas, monospace; fill: #9aa0a8; letter-spacing: .04em; }
    .limit { stroke: #de9552; stroke-width: 1.6; stroke-dasharray: 6 4; }
    .limit-t { font: 600 11px 'IBM Plex Mono', 'SF Mono', SFMono-Regular, Menlo, Consolas, monospace; fill: #de9552; letter-spacing: .08em; }
  </style>
  <rect class="bg" width="1200" height="440"/>
  <line class="gridline" x1="0" y1="0" x2="0" y2="440"/><line class="gridline" x1="40" y1="0" x2="40" y2="440"/><line class="gridline" x1="80" y1="0" x2="80" y2="440"/><line class="gridline" x1="120" y1="0" x2="120" y2="440"/><line class="gridline" x1="160" y1="0" x2="160" y2="440"/><line class="gridline" x1="200" y1="0" x2="200" y2="440"/><line class="gridline" x1="240" y1="0" x2="240" y2="440"/><line class="gridline" x1="280" y1="0" x2="280" y2="440"/><line class="gridline" x1="320" y1="0" x2="320" y2="440"/><line class="gridline" x1="360" y1="0" x2="360" y2="440"/><line class="gridline" x1="400" y1="0" x2="400" y2="440"/><line class="gridline" x1="440" y1="0" x2="440" y2="440"/><line class="gridline" x1="480" y1="0" x2="480" y2="440"/><line class="gridline" x1="520" y1="0" x2="520" y2="440"/><line class="gridline" x1="560" y1="0" x2="560" y2="440"/><line class="gridline" x1="600" y1="0" x2="600" y2="440"/><line class="gridline" x1="640" y1="0" x2="640" y2="440"/><line class="gridline" x1="680" y1="0" x2="680" y2="440"/><line class="gridline" x1="720" y1="0" x2="720" y2="440"/><line class="gridline" x1="760" y1="0" x2="760" y2="440"/><line class="gridline" x1="800" y1="0" x2="800" y2="440"/><line class="gridline" x1="840" y1="0" x2="840" y2="440"/><line class="gridline" x1="880" y1="0" x2="880" y2="440"/><line class="gridline" x1="920" y1="0" x2="920" y2="440"/><line class="gridline" x1="960" y1="0" x2="960" y2="440"/><line class="gridline" x1="1000" y1="0" x2="1000" y2="440"/><line class="gridline" x1="1040" y1="0" x2="1040" y2="440"/><line class="gridline" x1="1080" y1="0" x2="1080" y2="440"/><line class="gridline" x1="1120" y1="0" x2="1120" y2="440"/><line class="gridline" x1="1160" y1="0" x2="1160" y2="440"/><line class="gridline" x1="1200" y1="0" x2="1200" y2="440"/><line class="gridline" x1="0" y1="0" x2="1200" y2="0"/><line class="gridline" x1="0" y1="40" x2="1200" y2="40"/><line class="gridline" x1="0" y1="80" x2="1200" y2="80"/><line class="gridline" x1="0" y1="120" x2="1200" y2="120"/><line class="gridline" x1="0" y1="160" x2="1200" y2="160"/><line class="gridline" x1="0" y1="200" x2="1200" y2="200"/><line class="gridline" x1="0" y1="240" x2="1200" y2="240"/><line class="gridline" x1="0" y1="280" x2="1200" y2="280"/><line class="gridline" x1="0" y1="320" x2="1200" y2="320"/><line class="gridline" x1="0" y1="360" x2="1200" y2="360"/><line class="gridline" x1="0" y1="400" x2="1200" y2="400"/><line class="gridline" x1="0" y1="440" x2="1200" y2="440"/>
  <line class="gridline2" x1="110" y1="370.0" x2="1140" y2="370.0"/>
  <text class="tick" x="98" y="374.0" text-anchor="end">0</text>
  <line class="gridline2" x1="110" y1="327.1" x2="1140" y2="327.1"/>
  <text class="tick" x="98" y="331.1" text-anchor="end">1 000</text>
  <line class="gridline2" x1="110" y1="284.3" x2="1140" y2="284.3"/>
  <text class="tick" x="98" y="288.3" text-anchor="end">2 000</text>
  <line class="gridline2" x1="110" y1="241.4" x2="1140" y2="241.4"/>
  <text class="tick" x="98" y="245.4" text-anchor="end">3 000</text>
  <line class="gridline2" x1="110" y1="198.6" x2="1140" y2="198.6"/>
  <text class="tick" x="98" y="202.6" text-anchor="end">4 000</text>
  <line class="gridline2" x1="110" y1="155.7" x2="1140" y2="155.7"/>
  <text class="tick" x="98" y="159.7" text-anchor="end">5 000</text>
  <line class="gridline2" x1="110" y1="112.9" x2="1140" y2="112.9"/>
  <text class="tick" x="98" y="116.9" text-anchor="end">6 000</text>
  <line class="gridline2" x1="110" y1="70.0" x2="1140" y2="70.0"/>
  <text class="tick" x="98" y="74.0" text-anchor="end">7 000</text>
  <line class="axis" x1="110" y1="370" x2="1140" y2="370"/>
  <rect class="bar-f" x="149.8" y="284.3" width="54" height="85.7"/>
  <text class="val" x="176.8" y="277.3" text-anchor="middle">2 000</text>
  <rect class="bar-r" x="211.8" y="89.8" width="54" height="280.2"/>
  <text class="val" x="238.8" y="82.8" text-anchor="middle">6 537</text>
  <rect class="bar-c" x="273.8" y="326.4" width="54" height="43.6"/>
  <text class="val" x="300.8" y="319.4" text-anchor="middle">1 018</text>
  <text class="legend-name" x="238.8" y="398" text-anchor="middle">Position 1 · lowest</text>
  <text class="sub" x="238.8" y="416" text-anchor="middle">r_ny = 58.7 mm</text>
  <rect class="bar-f" x="407.2" y="284.3" width="54" height="85.7"/>
  <text class="val" x="434.2" y="277.3" text-anchor="middle">2 000</text>
  <rect class="bar-r" x="469.2" y="135.8" width="54" height="234.2"/>
  <text class="val" x="496.2" y="128.8" text-anchor="middle">5 465</text>
  <rect class="bar-c" x="531.2" y="319.1" width="54" height="50.9"/>
  <text class="val" x="558.2" y="312.1" text-anchor="middle">1 187</text>
  <text class="legend-name" x="496.2" y="398" text-anchor="middle">Position 2</text>
  <text class="sub" x="496.2" y="416" text-anchor="middle">r_ny = 70.3 mm</text>
  <rect class="bar-f" x="664.8" y="284.3" width="54" height="85.7"/>
  <text class="val" x="691.8" y="277.3" text-anchor="middle">2 000</text>
  <rect class="bar-r" x="726.8" y="167.9" width="54" height="202.1"/>
  <text class="val" x="753.8" y="160.9" text-anchor="middle">4 715</text>
  <rect class="bar-c" x="788.8" y="313.9" width="54" height="56.1"/>
  <text class="val" x="815.8" y="306.9" text-anchor="middle">1 308</text>
  <text class="legend-name" x="753.8" y="398" text-anchor="middle">Position 3</text>
  <text class="sub" x="753.8" y="416" text-anchor="middle">r_ny = 81.4 mm</text>
  <rect class="bar-f" x="922.2" y="284.3" width="54" height="85.7"/>
  <text class="val" x="949.2" y="277.3" text-anchor="middle">2 000</text>
  <rect class="bar-r" x="984.2" y="191.5" width="54" height="178.5"/>
  <text class="val" x="1011.2" y="184.5" text-anchor="middle">4 164</text>
  <rect class="bar-c" x="1046.2" y="310.0" width="54" height="60.0"/>
  <text class="val" x="1073.2" y="303.0" text-anchor="middle">1 400</text>
  <text class="legend-name" x="1011.2" y="398" text-anchor="middle">Position 4 · highest</text>
  <text class="sub" x="1011.2" y="416" text-anchor="middle">r_ny = 92.2 mm</text>
  <text class="tick" x="98" y="48" text-anchor="end">N</text>
  <rect class="bar-f" x="110" y="32" width="14" height="14"/><text class="legend" x="132" y="43">Pedal force F (2000 N design load)</text>
  <rect class="bar-r" x="440" y="32" width="14" height="14"/><text class="legend" x="462" y="43">Push-rod force F_ny</text>
  <rect class="bar-c" x="770" y="32" width="14" height="14"/><text class="legend" x="792" y="43">Load-cell force F_cell</text>
</svg>
