<svg xmlns="http://www.w3.org/2000/svg" viewBox="0 0 1200 448" width="1200" height="448" role="img" aria-labelledby="t d">
  <title id="t">Button box block diagram</title>
  <desc id="d">USB-C supplies 5 V to a 3.3 V LDO and carries USB data to the host PC. An RP2040 with QSPI flash and a crystal reads a 3 by 4 button matrix on 7 GPIO, four rotary encoders on 8 GPIO, and drives 64 per-control LEDs on one data line, appearing to the PC as a USB HID game controller.</desc>
  <style>
    .bg { fill: #fbfbf9; }
    .gridline { stroke: #ecebe5; stroke-width: 1; }
    .zone { fill: #f3f3ef; stroke: #d9d8d0; stroke-width: 1.2; }
    .zone-tab { fill: #383b40; }
    .tab { font: 600 10.5px 'IBM Plex Mono', 'SF Mono', SFMono-Regular, Menlo, Consolas, monospace; letter-spacing: .12em; fill: #fbfbf9; }
    .zone-title { font: 500 10.5px 'IBM Plex Mono', 'SF Mono', SFMono-Regular, Menlo, Consolas, monospace; letter-spacing: .14em; text-transform: uppercase; fill: #5d6167; }
    .node { fill: #ffffff; stroke: #383b40; stroke-width: 1.3; }
    .node--accent { stroke: #b05c1e; }
    .kicker { font: 500 10px 'IBM Plex Mono', 'SF Mono', SFMono-Regular, Menlo, Consolas, monospace; letter-spacing: .14em; text-transform: uppercase; fill: #b05c1e; }
    .name { font: 650 16px 'Archivo', 'Helvetica Neue', Helvetica, Arial, sans-serif; fill: #1b1d21; }
    .sub { font: 400 11px 'IBM Plex Mono', 'SF Mono', SFMono-Regular, Menlo, Consolas, monospace; letter-spacing: .04em; fill: #5d6167; }
    .link { fill: none; stroke: #383b40; stroke-width: 1.4; }
    .link--tunnel { stroke: #b05c1e; stroke-dasharray: 7 5; stroke-width: 1.6; }
    .arrow { fill: #383b40; }
    .arrow--accent { fill: #b05c1e; }
    .link-label { font: 500 10px 'IBM Plex Mono', 'SF Mono', SFMono-Regular, Menlo, Consolas, monospace; letter-spacing: .1em; text-transform: uppercase; fill: #5d6167; paint-order: stroke; stroke: #f3f3ef; stroke-width: 5px; }
    .link-label--accent { fill: #b05c1e; }
    .note { font: 400 11px 'IBM Plex Mono', 'SF Mono', SFMono-Regular, Menlo, Consolas, monospace; letter-spacing: .04em; fill: #5d6167; }

    .link--ctrl { stroke: #b05c1e; stroke-dasharray: 4 4; stroke-width: 1.4; fill: none; }
    .dot { fill: #383b40; }
    .board { fill: #ffffff; stroke: #383b40; stroke-width: 1.6; }
    .keepout { fill: url(#hatch); stroke: #d9d8d0; stroke-width: 1; }
    .hatchline { stroke: #d9d8d0; stroke-width: 1.2; }
    .region { fill: #f6ebe2; stroke: #b05c1e; stroke-width: 1.2; }
    .region--muted { fill: #f3f3ef; stroke: #383b40; stroke-width: 1; }
    .hole { fill: #fbfbf9; stroke: #383b40; stroke-width: 1.2; }
    .marker { fill: #b05c1e; }
    .marker-t { font: 600 11px 'IBM Plex Mono', 'SF Mono', SFMono-Regular, Menlo, Consolas, monospace; fill: #fbfbf9; }
    .legend-name { font: 600 14px 'Archivo', 'Helvetica Neue', Helvetica, Arial, sans-serif; fill: #1b1d21; }
    .dim { stroke: #5d6167; stroke-width: 1; }
    .legend { font: 500 10px 'IBM Plex Mono', 'SF Mono', SFMono-Regular, Menlo, Consolas, monospace; letter-spacing: .1em; text-transform: uppercase; fill: #5d6167; }
  </style>
  <rect class="bg" width="1200" height="448"/>
  <line class="gridline" x1="0" y1="0" x2="0" y2="448"/><line class="gridline" x1="40" y1="0" x2="40" y2="448"/><line class="gridline" x1="80" y1="0" x2="80" y2="448"/><line class="gridline" x1="120" y1="0" x2="120" y2="448"/><line class="gridline" x1="160" y1="0" x2="160" y2="448"/><line class="gridline" x1="200" y1="0" x2="200" y2="448"/><line class="gridline" x1="240" y1="0" x2="240" y2="448"/><line class="gridline" x1="280" y1="0" x2="280" y2="448"/><line class="gridline" x1="320" y1="0" x2="320" y2="448"/><line class="gridline" x1="360" y1="0" x2="360" y2="448"/><line class="gridline" x1="400" y1="0" x2="400" y2="448"/><line class="gridline" x1="440" y1="0" x2="440" y2="448"/><line class="gridline" x1="480" y1="0" x2="480" y2="448"/><line class="gridline" x1="520" y1="0" x2="520" y2="448"/><line class="gridline" x1="560" y1="0" x2="560" y2="448"/><line class="gridline" x1="600" y1="0" x2="600" y2="448"/><line class="gridline" x1="640" y1="0" x2="640" y2="448"/><line class="gridline" x1="680" y1="0" x2="680" y2="448"/><line class="gridline" x1="720" y1="0" x2="720" y2="448"/><line class="gridline" x1="760" y1="0" x2="760" y2="448"/><line class="gridline" x1="800" y1="0" x2="800" y2="448"/><line class="gridline" x1="840" y1="0" x2="840" y2="448"/><line class="gridline" x1="880" y1="0" x2="880" y2="448"/><line class="gridline" x1="920" y1="0" x2="920" y2="448"/><line class="gridline" x1="960" y1="0" x2="960" y2="448"/><line class="gridline" x1="1000" y1="0" x2="1000" y2="448"/><line class="gridline" x1="1040" y1="0" x2="1040" y2="448"/><line class="gridline" x1="1080" y1="0" x2="1080" y2="448"/><line class="gridline" x1="1120" y1="0" x2="1120" y2="448"/><line class="gridline" x1="1160" y1="0" x2="1160" y2="448"/><line class="gridline" x1="1200" y1="0" x2="1200" y2="448"/><line class="gridline" x1="0" y1="0" x2="1200" y2="0"/><line class="gridline" x1="0" y1="40" x2="1200" y2="40"/><line class="gridline" x1="0" y1="80" x2="1200" y2="80"/><line class="gridline" x1="0" y1="120" x2="1200" y2="120"/><line class="gridline" x1="0" y1="160" x2="1200" y2="160"/><line class="gridline" x1="0" y1="200" x2="1200" y2="200"/><line class="gridline" x1="0" y1="240" x2="1200" y2="240"/><line class="gridline" x1="0" y1="280" x2="1200" y2="280"/><line class="gridline" x1="0" y1="320" x2="1200" y2="320"/><line class="gridline" x1="0" y1="360" x2="1200" y2="360"/><line class="gridline" x1="0" y1="400" x2="1200" y2="400"/><line class="gridline" x1="0" y1="440" x2="1200" y2="440"/>
  <rect class="zone" x="24" y="24" width="360" height="400"/>
  <path class="zone-tab" d="M24 24 h44.2 v22 h-44.2 z"/>
  <text class="tab" x="35" y="39">P-1</text>
  <text class="zone-title" x="80.2" y="39.5">USB &amp; power</text>
  <rect class="zone" x="408" y="24" width="300" height="400"/>
  <path class="zone-tab" d="M408 24 h44.2 v22 h-44.2 z"/>
  <text class="tab" x="419" y="39">C-1</text>
  <text class="zone-title" x="464.2" y="39.5">Controller</text>
  <rect class="zone" x="732" y="24" width="444" height="400"/>
  <path class="zone-tab" d="M732 24 h44.2 v22 h-44.2 z"/>
  <text class="tab" x="743" y="39">I-1</text>
  <text class="zone-title" x="788.2" y="39.5">Controls</text>
  <line class="link" x1="129" y1="174" x2="129" y2="250"/>
  <line class="link" x1="214" y1="100" x2="252" y2="100"/>
  <line class="link" x1="352" y1="100" x2="428" y2="100"/>
  <polyline class="link" points="214,150 234,150 234,206 400,206 400,150 428,150"/>
  <line class="link" x1="640" y1="122" x2="688" y2="122"/>
  <polyline class="link" points="688,122 688,96 752,96"/>
  <polyline class="link" points="688,122 688,226 752,226"/>
  <polyline class="link" points="688,122 688,356 752,356"/>
  <line class="link" x1="534" y1="174" x2="534" y2="250"/>
  <rect class="node" x="44" y="70" width="170" height="104"/>
  <text class="kicker" x="56" y="89">Connector</text>
  <text class="name" x="56" y="110">USB-C</text>
  <text class="sub" x="56" y="128">5 V VBUS</text>
  <text class="sub" x="56" y="144">CC 5.1 kΩ pull-downs</text>
  <rect class="node" x="252" y="70" width="100" height="104"/>
  <text class="kicker" x="264" y="89">LDO</text>
  <text class="name" x="264" y="110">3.3 V</text>
  <text class="sub" x="264" y="128">NCP1117</text>
  <rect class="node node--accent" x="44" y="250" width="170" height="104"/>
  <text class="kicker" x="56" y="269">Host</text>
  <text class="name" x="56" y="290">PC · game</text>
  <text class="sub" x="56" y="308">USB HID</text>
  <text class="sub" x="56" y="324">joystick buttons</text>
  <rect class="node node--accent" x="428" y="70" width="212" height="104"/>
  <text class="kicker" x="440" y="89">MCU</text>
  <text class="name" x="440" y="110">RP2040</text>
  <text class="sub" x="440" y="128">dual Cortex-M0+</text>
  <text class="sub" x="440" y="144">native USB</text>
  <rect class="node" x="428" y="250" width="212" height="104"/>
  <text class="kicker" x="440" y="269">Boot</text>
  <text class="name" x="440" y="290">QSPI flash</text>
  <text class="sub" x="440" y="308">+ crystal</text>
  <text class="sub" x="440" y="324">firmware storage</text>
  <rect class="node" x="752" y="52" width="404" height="92"/>
  <text class="kicker" x="764" y="71">Matrix · 7 GPIO</text>
  <text class="name" x="764" y="92">12 push buttons</text>
  <text class="sub" x="764" y="110">3 rows × 4 columns · 10 kΩ pull-ups</text>
  <rect class="node" x="752" y="180" width="404" height="92"/>
  <text class="kicker" x="764" y="199">Quadrature · 8 GPIO</text>
  <text class="name" x="764" y="220">4 rotary encoders</text>
  <text class="sub" x="764" y="238">A/B channels, common to ground</text>
  <rect class="node node--accent" x="752" y="310" width="404" height="92"/>
  <text class="kicker" x="764" y="329">Data line · 1 GPIO</text>
  <text class="name" x="764" y="350">64 per-control LEDs</text>
  <text class="sub" x="764" y="368">4 around every button and encoder</text>
  <text class="link-label" x="233" y="90" text-anchor="middle">5 V</text>
  <text class="link-label" x="390" y="90" text-anchor="middle">3.3 V</text>
  <text class="link-label" x="317" y="196" text-anchor="middle">D+ / D−</text>
  <text class="link-label" x="544" y="214" text-anchor="start">QSPI</text>
  <text class="link-label" x="139" y="214" text-anchor="start">USB cable</text>
</svg>
